<?xml version="1.0" encoding="UTF-8" standalone="no"?>
<svg width="427px" height="512px" viewBox="0 0 427 512" version="1.1" xmlns="http://www.w3.org/2000/svg" xmlns:xlink="http://www.w3.org/1999/xlink">
    <!-- Generator: Sketch 43.1 (39012) - http://www.bohemiancoding.com/sketch -->
    <title>Combined Shape</title>
    <desc>Created with Sketch.</desc>
    <defs></defs>
    <g id="Page-1" stroke="none" stroke-width="1" fill="none" fill-rule="evenodd">
        <path d="M230.04423,451.64469 C251.810604,434.312207 273.583957,414.716189 293.846344,393.328114 C350.451236,333.578506 384.000002,272.072434 384.000002,213.333332 C384.000001,119.076735 307.589931,42.666667 213.333335,42.666667 C119.076738,42.666667 42.6666683,119.076735 42.6666669,213.333332 C42.6666669,272.072434 76.2154335,333.578506 132.820325,393.328114 C153.082712,414.716189 174.856065,434.312207 196.622439,451.64469 C202.563651,456.375655 208.164022,460.663686 213.333335,464.482491 C218.502647,460.663686 224.103018,456.375655 230.04423,451.64469 Z M324.820326,422.671885 C303.082713,445.617143 279.856066,466.521126 256.622439,485.021976 C248.477838,491.507493 240.899707,497.239669 234.0738,502.16949 C229.914114,505.173708 226.883103,507.272964 225.166939,508.417073 C218.001085,513.194309 208.665584,513.194309 201.49973,508.417073 C199.783566,507.272964 196.752555,505.173708 192.592869,502.16949 C185.766962,497.239669 178.188832,491.507493 170.04423,485.021976 C146.810603,466.521126 123.583956,445.617143 101.846343,422.671885 C38.4512338,355.754825 0,285.260897 0,213.333331 C1.75566554e-06,95.5125854 95.5125885,1.34110451e-07 213.333335,1.34110451e-07 C331.154081,1.34110451e-07 426.666667,95.5125854 426.666669,213.333331 C426.666669,285.260897 388.215435,355.754825 324.820326,422.671885 Z M213.333335,298.666666 C166.205036,298.666666 128.000001,260.461631 128.000001,213.333332 C128.000001,166.205033 166.205036,127.999998 213.333335,127.999998 C260.461633,127.999998 298.666668,166.205033 298.666668,213.333332 C298.666668,260.461631 260.461633,298.666666 213.333335,298.666666 Z M213.333335,255.999999 C236.897484,255.999999 256.000001,236.897481 256.000001,213.333332 C256.000001,189.769182 236.897484,170.666665 213.333335,170.666665 C189.769185,170.666665 170.666668,189.769182 170.666668,213.333332 C170.666668,236.897481 189.769185,255.999999 213.333335,255.999999 Z" id="Combined-Shape" fill="#EF483E" fill-rule="nonzero"></path>
    </g>
</svg>